<svg width="367" height="377" viewBox="0 0 367 377" fill="none" xmlns="http://www.w3.org/2000/svg">
<path d="M362.665 140.824C338.665 25.6238 263.332 25.1571 228.665 39.3238C199.165 60.3238 52.1652 137.324 46.6652 140.824C-22.8348 182.824 5.16518 255.324 7.66518 262.324C67.1652 383.824 162.165 372.824 170.665 374.824C271.165 387.824 321.165 317.324 323.165 308.324C353.165 262.824 376.66 208 362.665 140.824Z" fill="#D8CBBB"/>
<path d="M161 164.89L162.5 146.17L208 145V166.645C204 170.155 185 172.495 184.5 171.91C176.1 171.442 165.333 167.035 161 164.89Z" fill="#735D4F" stroke="#735D4F"/>
<path d="M142 107.5V78.5C140 78 140 78 139 78C136.5 78 133 82.5 133 84.5C133.167 87.5 133.5 93.6 133.5 94C133.5 94.5 135.5 100 136 101C137.6 105.4 140.667 107.167 142 107.5Z" fill="#685245" stroke="#685245"/>
<path d="M226 107V78.4915C228.222 78 228.222 78 229.333 78C232.111 78 236 82.4237 236 84.3898C235.815 87.339 235.444 93.3356 235.444 93.7288C235.444 94.2203 233.222 99.6271 232.667 100.61C230.889 104.936 227.481 106.672 226 107Z" fill="#685245" stroke="#685245"/>
<path d="M142.221 80.5023H137.221H135.221C135.054 62.5023 134.821 26.4024 135.221 26.0024C138.221 15.5024 145.221 8.50237 146.221 7.50237C149.5 2.80572 159.5 0.805717 160.721 0.502393C163 -0.0639814 202.221 0.00239307 203.221 0.00239307C213.5 0.805542 222.5 6.80554 226.221 10.5024C229.281 13.5429 234 22.8055 234.721 26.0024L233.721 80.0024H226.221V58.5024C225.512 53.8831 222.598 50.4215 219.859 47.1662L219.721 47.0024C216.5 44.3055 211.779 40.1087 203.5 38.8055C201.779 38.8055 189.242 38.0023 186.5 38.0023C184 38.0023 170 37.3055 160.721 40.0023C151.5 42.6822 149.5 46.3055 146.221 50.5023C143.5 53.8055 142.221 71.169 142.221 80.5023Z" fill="url(#paint0_linear_1266_38)"/>
<path d="M141.585 52.9596L139 105.485C143.653 125.445 147.482 127.546 148.516 129.647C152.135 137.525 161.75 143.828 164.544 146.455C183.983 165.364 192.773 155.505 194.841 154.859C201.562 152.758 218.625 131.748 219.659 130.172C225.45 122.188 228.966 110.387 230 105.485C228.966 88.6768 226.794 54.6404 226.381 52.9596C222.244 37.4121 209.835 33.1751 204.148 33H167.955C150.168 33 142.964 46.3064 141.585 52.9596Z" fill="#735D4F" stroke="#735D4F"/>
<path d="M155.438 67L177 67.4545V72H151.22C150.095 70.9091 153.563 68.2121 155.438 67Z" fill="#0F1821" stroke="#0E161E"/>
<path d="M194 72V67H216.286C219.257 67 220 70.3333 220 72H194Z" fill="#0F141A" stroke="black"/>
<path d="M338 374H31C40.1518 327.493 56.5 236.923 58.4553 233.55C69.5 214.5 89 206.5 92.8992 204.716C96 203.5 133.333 189.369 135.33 189.369C144.815 187.044 156.795 161.465 156.795 161C162.785 165.651 180.756 167.511 182.254 167.511C194.234 168.441 212.704 161 212.704 161.465C217.097 177.835 230.176 186.889 236.166 189.369C249.311 193.865 276.3 203.228 279.096 204.716C296.268 209.925 307.882 226.109 311.543 233.55L338 374Z" fill="#A65236" stroke="#A65236"/>
<path d="M103.5 279L107 293L97 374.5M273.5 279L269 291.5L277.5 374.5" stroke="#8E3C27"/>
<path d="M181 85.9099C180.259 82.2012 177.666 84.8503 178.036 85.9101C178.036 91.2084 178.036 102.334 178.777 103.924C179.662 105.823 180.506 104.807 181 103.924V85.9099Z" fill="#685245"/>
<path d="M174.6 74.0396C177.055 76.8678 178.712 81.4223 179 88.2858C178.994 93.1494 176.803 97.5825 173.816 100.819C170.797 104.09 167.118 105.982 164.299 106C160.185 106.025 156.242 104.52 153.398 101.588C150.566 98.668 148.753 94.2585 149.027 88.3319C149.597 81.8009 151.66 77.2284 154.484 74.2975C157.303 71.3722 160.957 70 164.887 70C168.837 70 172.168 71.2377 174.6 74.0396Z" stroke="white" stroke-width="2"/>
<path d="M217.6 74.0396C220.055 76.8678 221.712 81.4223 222 88.2858C221.994 93.1494 219.803 97.5825 216.816 100.819C213.797 104.09 210.118 105.982 207.299 106C203.185 106.025 199.242 104.52 196.398 101.588C193.566 98.668 191.753 94.2585 192.027 88.3319C192.597 81.8009 194.66 77.2284 197.484 74.2975C200.303 71.3722 203.957 70 207.887 70C211.837 70 215.168 71.2377 217.6 74.0396Z" stroke="white" stroke-width="2"/>
<path d="M179 89.5V85.5C180 84 183.5 84 186 84C188.322 84 190 84.5 191.5 85.5V90C191 87.5 188.814 86.5 185.5 86.5C181.5 86.5 179.5 88.5 179 89.5Z" fill="white" stroke="white"/>
<path d="M186.5 156.5C174.1 155.7 165.667 148.5 163 145C172.5 162.5 185.5 162.5 188.5 162.5C193.5 162 209 145 208 145C203 153.5 188 156.5 186.5 156.5Z" fill="#655146" stroke="#655244"/>
<path d="M184 113H181C181 112.4 182 112 182.75 112C183.35 112 183.833 112.667 184 113Z" fill="#503E32" stroke="#503E32" stroke-width="0.5"/>
<path d="M191 113H188C188 112.4 189 112 189.75 112C190.35 112 190.833 112.667 191 113Z" fill="#503E32" stroke="#503E32" stroke-width="0.5"/>
<defs>
<linearGradient id="paint0_linear_1266_38" x1="184.86" y1="0" x2="184.86" y2="80.5023" gradientUnits="userSpaceOnUse">
<stop stop-color="#0F161E"/>
<stop offset="0.245145" stop-color="#0F161E"/>
<stop offset="0.510773" stop-color="#0F161E" stop-opacity="0.98"/>
<stop offset="0.595687" stop-color="#413A37"/>
<stop offset="0.724146" stop-color="#433B38"/>
<stop offset="1" stop-color="#403936"/>
</linearGradient>
</defs>
</svg>
